<svg width="23" height="20" viewBox="0 0 23 20" fill="none" xmlns="http://www.w3.org/2000/svg">
<path d="M11.6077 16.9482L11.5 17.0572L11.3815 16.9482C6.26616 12.2507 2.88462 9.14441 2.88462 5.99455C2.88462 3.81471 4.5 2.17984 6.65385 2.17984C8.31231 2.17984 9.9277 3.26975 10.4985 4.75204H12.5015C13.0723 3.26975 14.6877 2.17984 16.3462 2.17984C18.5 2.17984 20.1154 3.81471 20.1154 5.99455C20.1154 9.14441 16.7339 12.2507 11.6077 16.9482ZM16.3462 0C14.4723 0 12.6739 0.882834 11.5 2.26703C10.3262 0.882834 8.5277 0 6.65385 0C3.33693 0 0.730774 2.6267 0.730774 5.99455C0.730774 10.1035 4.39231 13.4714 9.93847 18.5613L11.5 20L13.0615 18.5613C18.6077 13.4714 22.2692 10.1035 22.2692 5.99455C22.2692 2.6267 19.6631 0 16.3462 0Z" fill="white"/>
</svg>