<svg width="88" height="68" viewBox="0 0 88 68" fill="none" xmlns="http://www.w3.org/2000/svg">
<path d="M78.0442 24.3945C74.1539 25.0297 71.4545 28.7215 71.4545 32.6912V44.1239H15.8788V32.2148C15.8788 27.8482 12.3458 24.2755 7.93939 24.2755C3.53303 24.2755 0 27.8482 0 32.2148V52.0633C0 56.43 3.57273 60.0027 7.93939 60.0027V67.9421H15.8788V60.0027H71.4545V67.9421H79.3939V60.0027C83.7606 60.0027 87.3333 56.43 87.3333 52.0633V32.2148C87.3333 27.4115 83.0064 23.5609 78.0442 24.3945Z" fill="white"/>
<path d="M69.9719 15.7541V5.25138C69.9719 2.33687 67.6088 1.71661e-05 64.7205 1.71661e-05H22.7096C19.8214 1.71661e-05 17.4583 2.33687 17.4583 5.25138V15.7541C20.3728 15.7541 22.7096 18.1172 22.7096 21.0055C22.7096 23.8937 20.3728 26.2568 17.4583 26.2568V36.7596C17.4583 39.6478 19.8214 42.0109 22.7096 42.0109H64.7205C67.6088 42.0109 69.9719 39.6478 69.9719 36.7596V26.2568C67.0836 26.2568 64.7205 23.8937 64.7205 21.0055C64.7205 18.1172 67.0836 15.7541 69.9719 15.7541ZM64.7205 11.9206C61.5959 13.7323 59.4691 17.1457 59.4691 21.0055C59.4691 24.8652 61.5959 28.2786 64.7205 30.0903V36.7596H22.7096V30.0903C25.8342 28.2786 27.961 24.8652 27.961 21.0055C27.961 17.0669 25.8604 13.7323 22.7096 11.9206V5.25138H64.7205V11.9206ZM41.0894 28.8825H46.3407V34.1339H41.0894M41.0894 18.3798H46.3407V23.6311H41.0894M41.0894 7.87706H46.3407V13.1284H41.0894V7.87706Z" fill="white"/>
</svg>
