<svg width="139" height="36" viewBox="0 0 139 36" fill="none" xmlns="http://www.w3.org/2000/svg">
<path d="M41.2127 12.882C39.1584 13.2174 37.7329 15.167 37.7329 17.2633V23.3005H8.38509V17.0117C8.38509 14.7058 6.51941 12.8192 4.19255 12.8192C1.86568 12.8192 0 14.7058 0 17.0117V27.4931C0 29.799 1.88665 31.6856 4.19255 31.6856V35.8782H8.38509V31.6856H37.7329V35.8782H41.9255V31.6856C44.2314 31.6856 46.118 29.799 46.118 27.4931V17.0117C46.118 14.4752 43.8331 12.4418 41.2127 12.882Z" fill="white"/>
<path d="M36.95 8.31924V2.77308C36.95 1.23402 35.7021 0 34.1769 0H11.9923C10.4671 0 9.21918 1.23402 9.21918 2.77308V8.31924C10.7582 8.31924 11.9923 9.56713 11.9923 11.0923C11.9923 12.6175 10.7582 13.8654 9.21918 13.8654V19.4116C9.21918 20.9368 10.4671 22.1846 11.9923 22.1846H34.1769C35.7021 22.1846 36.95 20.9368 36.95 19.4116V13.8654C35.4248 13.8654 34.1769 12.6175 34.1769 11.0923C34.1769 9.56713 35.4248 8.31924 36.95 8.31924ZM34.1769 6.29489C32.5269 7.25161 31.4038 9.05411 31.4038 11.0923C31.4038 13.1305 32.5269 14.933 34.1769 15.8898V19.4116H11.9923V15.8898C13.6422 14.933 14.7653 13.1305 14.7653 11.0923C14.7653 9.01251 13.6561 7.25161 11.9923 6.29489V2.77308H34.1769V6.29489ZM21.698 15.2519H24.4711V18.025H21.698M21.698 9.70578H24.4711V12.4789H21.698M21.698 4.15962H24.4711V6.9327H21.698V4.15962Z" fill="white"/>
<path d="M59.4171 22.4097H63.3568V25.0063H57.6711C56.6862 24.0811 55.94 22.9096 55.4326 21.4919C54.9252 20.0742 54.6715 18.6192 54.6715 17.1269C54.6715 15.6196 54.9551 14.1721 55.5222 12.7842C56.0892 11.3964 56.9324 10.2473 58.0516 9.33698H63.3568V12.0231H59.4171C59.0142 12.4858 58.6635 13.2319 58.365 14.2616C58.0815 15.2913 57.9397 16.2762 57.9397 17.2164C57.9397 18.1566 58.0815 19.1415 58.365 20.1712C58.6635 21.2009 59.0142 21.947 59.4171 22.4097ZM71.4734 25.0063H66.5935C65.1012 23.6184 64.355 21.7232 64.355 19.3206C64.355 18.1118 64.5192 17.0597 64.8475 16.1643C65.1907 15.2689 65.728 14.4034 66.4592 13.5677H71.6972C72.4732 14.4631 73.003 15.3361 73.2865 16.1867C73.5701 17.0224 73.7118 18.067 73.7118 19.3206C73.7118 21.7232 72.9657 23.6184 71.4734 25.0063ZM68.1828 22.6559H69.8841C70.4213 21.6113 70.6899 20.4249 70.6899 19.0967C70.6899 17.7686 70.4138 16.709 69.8617 15.9181H68.1828C67.6456 16.6792 67.377 17.7611 67.377 19.1639C67.377 20.5517 67.6456 21.7157 68.1828 22.6559ZM80.2837 13.5677H81.873L82.4326 14.3512C82.746 14.0676 83.0445 13.8662 83.328 13.7468C83.6265 13.6274 84.0667 13.5677 84.6487 13.5677H87.1334C87.79 14.4034 88.2377 15.2391 88.4765 16.0748C88.7153 16.9105 88.8347 17.9551 88.8347 19.2086V25.0063H85.8575V18.9848C85.8575 17.6119 85.6486 16.5896 85.2307 15.9181H83.0818C83.4101 16.5598 83.5742 17.4328 83.5742 18.5371V25.0063H80.5971V18.9848C80.5971 17.5671 80.4031 16.5449 80.0151 15.9181H78.2914V25.0063H75.3143V13.5677H77.6423L78.0452 14.3735C78.3735 14.0751 78.6794 13.8662 78.963 13.7468C79.2615 13.6274 79.7017 13.5677 80.2837 13.5677ZM93.441 9.33698H96.6644V11.6874H94.6498C94.1424 12.0008 93.8887 12.6275 93.8887 13.5677H96.2167V15.9181H93.8887V25.0063H90.9115V15.9181H89.6804V13.5677H90.9115C90.9115 11.6277 91.7547 10.2174 93.441 9.33698ZM103.739 25.0063H98.859C97.3667 23.6184 96.6205 21.7232 96.6205 19.3206C96.6205 18.1118 96.7847 17.0597 97.113 16.1643C97.4562 15.2689 97.9934 14.4034 98.7247 13.5677H103.963C104.739 14.4631 105.268 15.3361 105.552 16.1867C105.836 17.0224 105.977 18.067 105.977 19.3206C105.977 21.7232 105.231 23.6184 103.739 25.0063ZM100.448 22.6559H102.15C102.687 21.6113 102.955 20.4249 102.955 19.0967C102.955 17.7686 102.679 16.709 102.127 15.9181H100.448C99.9111 16.6792 99.6425 17.7611 99.6425 19.1639C99.6425 20.5517 99.9111 21.7157 100.448 22.6559ZM107.602 25.0063V13.5677H109.729L110.288 14.7765C110.885 13.9706 111.639 13.5677 112.549 13.5677H113.422V16.5672H110.579V25.0063H107.602ZM117.348 12.0231H113.967V9.33698H123.772V12.0231H120.392V25.0063H117.348V12.0231ZM124.959 25.0063V13.5677H127.913V25.0063H124.959ZM124.959 9.33698H127.913V12.3589H124.959V9.33698ZM133.616 17.8208L135.004 13.5677H138.116L135.989 19.1415L138.205 25.0063H135.139L133.594 20.5741H133.504L132.027 25.0063H128.96L131.176 19.1415L129.05 13.5677H132.117L133.527 17.8208H133.616Z" fill="white"/>
</svg>