<svg width="21" height="20" viewBox="0 0 21 20" fill="none" xmlns="http://www.w3.org/2000/svg">
<path d="M18.6346 18C18.6346 19.11 17.7446 20 16.6346 20C15.5246 20 14.6346 19.1 14.6346 18C14.6346 16.89 15.5246 16 16.6346 16C17.7446 16 18.6346 16.9 18.6346 18ZM6.63464 16C5.52464 16 4.63464 16.89 4.63464 18C4.63464 19.1 5.52464 20 6.63464 20C7.74464 20 8.63464 19.11 8.63464 18C8.63464 16.89 7.74464 16 6.63464 16ZM6.83464 12.63L6.80464 12.75C6.80464 12.89 6.91464 13 7.05464 13H18.6346V15H6.63464C5.52464 15 4.63464 14.1 4.63464 13C4.63464 12.65 4.72464 12.32 4.87464 12.04L6.23464 9.59L2.63464 2H0.634644V0H3.90464L4.84464 2H19.6346C20.1846 2 20.6346 2.45 20.6346 3C20.6346 3.17 20.5846 3.34 20.5146 3.5L16.9346 9.97C16.5946 10.58 15.9346 11 15.1846 11H7.73464L6.83464 12.63ZM8.13464 9H9.63464V7H7.19464L8.13464 9ZM10.6346 7V9H13.6346V7H10.6346ZM13.6346 6V4H10.6346V6H13.6346ZM16.7446 7H14.6346V9H15.6346L16.7446 7ZM18.4146 4H14.6346V6H17.3046L18.4146 4ZM5.77464 4L6.71464 6H9.63464V4H5.77464Z" fill="white"/>
</svg>